<svg width="188" height="13" viewBox="0 0 188 13" fill="none" xmlns="http://www.w3.org/2000/svg">
<path d="M6.125 12L8.03409 0.363636H9.85227L7.94318 12H6.125ZM0.914773 9.11364L1.21591 7.29545H10.3068L10.0057 9.11364H0.914773ZM2.03409 12L3.94318 0.363636H5.76136L3.85227 12H2.03409ZM1.57955 5.06818L1.88636 3.25H10.9773L10.6705 5.06818H1.57955ZM12.152 12V0.363636H19.8565V2.39205H14.6122V5.16477H19.3452V7.19318H14.6122V12H12.152ZM26.5156 8.28409V3.27273H28.9361V12H26.6122V10.4148H26.5213C26.3243 10.9261 25.9967 11.3371 25.5384 11.6477C25.0838 11.9583 24.5289 12.1136 23.8736 12.1136C23.2902 12.1136 22.777 11.9811 22.3338 11.7159C21.8906 11.4508 21.544 11.0739 21.294 10.5852C21.0478 10.0966 20.9228 9.51136 20.919 8.82955V3.27273H23.3395V8.39773C23.3433 8.91288 23.4815 9.32008 23.7543 9.61932C24.027 9.91856 24.3925 10.0682 24.8509 10.0682C25.1425 10.0682 25.4152 10.0019 25.669 9.86932C25.9228 9.73295 26.1274 9.5322 26.2827 9.26705C26.4418 9.00189 26.5194 8.67424 26.5156 8.28409ZM33.2926 6.95455V12H30.8722V3.27273H33.179V4.8125H33.2812C33.4744 4.30492 33.7983 3.90341 34.2528 3.60795C34.7074 3.30871 35.2585 3.15909 35.9062 3.15909C36.5123 3.15909 37.0407 3.29167 37.4915 3.55682C37.9422 3.82197 38.2926 4.20076 38.5426 4.69318C38.7926 5.18182 38.9176 5.76515 38.9176 6.44318V12H36.4972V6.875C36.5009 6.34091 36.3646 5.92424 36.0881 5.625C35.8116 5.32197 35.4309 5.17045 34.946 5.17045C34.6203 5.17045 34.3324 5.24053 34.0824 5.38068C33.8362 5.52083 33.643 5.72538 33.5028 5.99432C33.3665 6.25947 33.2964 6.57955 33.2926 6.95455ZM52.6406 12L54.5497 0.363636H56.3679L54.4588 12H52.6406ZM47.4304 9.11364L47.7315 7.29545H56.8224L56.5213 9.11364H47.4304ZM48.5497 12L50.4588 0.363636H52.277L50.3679 12H48.5497ZM48.0952 5.06818L48.402 3.25H57.4929L57.1861 5.06818H48.0952ZM68.9347 4.4375H66.446C66.4006 4.11553 66.3078 3.82955 66.1676 3.57955C66.0275 3.32576 65.8475 3.10985 65.6278 2.93182C65.4081 2.75379 65.1544 2.61742 64.8665 2.52273C64.5824 2.42803 64.2737 2.38068 63.9403 2.38068C63.3381 2.38068 62.8134 2.5303 62.3665 2.82955C61.9195 3.125 61.5729 3.55682 61.3267 4.125C61.0805 4.68939 60.9574 5.375 60.9574 6.18182C60.9574 7.01136 61.0805 7.70833 61.3267 8.27273C61.5767 8.83712 61.9252 9.26326 62.3722 9.55114C62.8191 9.83902 63.3362 9.98295 63.9233 9.98295C64.2528 9.98295 64.5578 9.93939 64.8381 9.85227C65.1222 9.76515 65.3741 9.63826 65.5938 9.47159C65.8134 9.30114 65.9953 9.0947 66.1392 8.85227C66.2869 8.60985 66.3892 8.33333 66.446 8.02273L68.9347 8.03409C68.8703 8.56818 68.7093 9.08333 68.4517 9.57955C68.1979 10.072 67.8551 10.5133 67.4233 10.9034C66.9953 11.2898 66.4839 11.5966 65.8892 11.8239C65.2983 12.0473 64.6297 12.1591 63.8835 12.1591C62.8456 12.1591 61.9176 11.9242 61.0994 11.4545C60.285 10.9848 59.6411 10.3049 59.1676 9.41477C58.6979 8.52462 58.4631 7.44697 58.4631 6.18182C58.4631 4.91288 58.7017 3.83333 59.179 2.94318C59.6563 2.05303 60.304 1.375 61.1222 0.909091C61.9403 0.439394 62.8608 0.204545 63.8835 0.204545C64.5578 0.204545 65.1828 0.299242 65.7585 0.488636C66.3381 0.67803 66.8513 0.954545 67.2983 1.31818C67.7453 1.67803 68.1089 2.11932 68.3892 2.64205C68.6733 3.16477 68.8551 3.76326 68.9347 4.4375ZM74.5966 12.1705C73.714 12.1705 72.9508 11.983 72.3068 11.608C71.6667 11.2292 71.1723 10.7027 70.8239 10.0284C70.4754 9.35038 70.3011 8.56439 70.3011 7.67045C70.3011 6.76894 70.4754 5.98106 70.8239 5.30682C71.1723 4.62879 71.6667 4.10227 72.3068 3.72727C72.9508 3.34848 73.714 3.15909 74.5966 3.15909C75.4792 3.15909 76.2405 3.34848 76.8807 3.72727C77.5246 4.10227 78.0208 4.62879 78.3693 5.30682C78.7178 5.98106 78.892 6.76894 78.892 7.67045C78.892 8.56439 78.7178 9.35038 78.3693 10.0284C78.0208 10.7027 77.5246 11.2292 76.8807 11.608C76.2405 11.983 75.4792 12.1705 74.5966 12.1705ZM74.608 10.2955C75.0095 10.2955 75.3447 10.1818 75.6136 9.95455C75.8826 9.72348 76.0852 9.40909 76.2216 9.01136C76.3617 8.61364 76.4318 8.16098 76.4318 7.65341C76.4318 7.14583 76.3617 6.69318 76.2216 6.29545C76.0852 5.89773 75.8826 5.58333 75.6136 5.35227C75.3447 5.12121 75.0095 5.00568 74.608 5.00568C74.2027 5.00568 73.8617 5.12121 73.5852 5.35227C73.3125 5.58333 73.1061 5.89773 72.9659 6.29545C72.8295 6.69318 72.7614 7.14583 72.7614 7.65341C72.7614 8.16098 72.8295 8.61364 72.9659 9.01136C73.1061 9.40909 73.3125 9.72348 73.5852 9.95455C73.8617 10.1818 74.2027 10.2955 74.608 10.2955ZM84.4091 12.1705C83.5265 12.1705 82.7633 11.983 82.1193 11.608C81.4792 11.2292 80.9848 10.7027 80.6364 10.0284C80.2879 9.35038 80.1136 8.56439 80.1136 7.67045C80.1136 6.76894 80.2879 5.98106 80.6364 5.30682C80.9848 4.62879 81.4792 4.10227 82.1193 3.72727C82.7633 3.34848 83.5265 3.15909 84.4091 3.15909C85.2917 3.15909 86.053 3.34848 86.6932 3.72727C87.3371 4.10227 87.8333 4.62879 88.1818 5.30682C88.5303 5.98106 88.7045 6.76894 88.7045 7.67045C88.7045 8.56439 88.5303 9.35038 88.1818 10.0284C87.8333 10.7027 87.3371 11.2292 86.6932 11.608C86.053 11.983 85.2917 12.1705 84.4091 12.1705ZM84.4205 10.2955C84.822 10.2955 85.1572 10.1818 85.4261 9.95455C85.6951 9.72348 85.8977 9.40909 86.0341 9.01136C86.1742 8.61364 86.2443 8.16098 86.2443 7.65341C86.2443 7.14583 86.1742 6.69318 86.0341 6.29545C85.8977 5.89773 85.6951 5.58333 85.4261 5.35227C85.1572 5.12121 84.822 5.00568 84.4205 5.00568C84.0152 5.00568 83.6742 5.12121 83.3977 5.35227C83.125 5.58333 82.9186 5.89773 82.7784 6.29545C82.642 6.69318 82.5739 7.14583 82.5739 7.65341C82.5739 8.16098 82.642 8.61364 82.7784 9.01136C82.9186 9.40909 83.125 9.72348 83.3977 9.95455C83.6742 10.1818 84.0152 10.2955 84.4205 10.2955ZM92.6989 0.363636V12H90.2784V0.363636H92.6989ZM106.453 12L108.362 0.363636H110.18L108.271 12H106.453ZM101.243 9.11364L101.544 7.29545H110.635L110.334 9.11364H101.243ZM102.362 12L104.271 0.363636H106.089L104.18 12H102.362ZM101.908 5.06818L102.214 3.25H111.305L110.999 5.06818H101.908ZM114.486 12H111.849L115.866 0.363636H119.037L123.048 12H120.412L117.497 3.02273H117.406L114.486 12ZM114.321 7.42614H120.548V9.34659H114.321V7.42614ZM125.031 12L122.656 3.27273H125.105L126.457 9.13636H126.537L127.946 3.27273H130.349L131.781 9.10227H131.855L133.185 3.27273H135.628L133.259 12H130.696L129.196 6.51136H129.088L127.588 12H125.031ZM140.678 12.1705C139.78 12.1705 139.007 11.9886 138.359 11.625C137.715 11.2576 137.219 10.7386 136.871 10.0682C136.522 9.39394 136.348 8.59659 136.348 7.67614C136.348 6.77841 136.522 5.99053 136.871 5.3125C137.219 4.63447 137.71 4.10606 138.342 3.72727C138.979 3.34848 139.725 3.15909 140.581 3.15909C141.157 3.15909 141.693 3.25189 142.189 3.4375C142.689 3.61932 143.125 3.89394 143.496 4.26136C143.871 4.62879 144.162 5.09091 144.371 5.64773C144.579 6.20076 144.683 6.84848 144.683 7.59091V8.25568H137.314V6.75568H142.405C142.405 6.4072 142.329 6.09848 142.178 5.82955C142.026 5.56061 141.816 5.35038 141.547 5.19886C141.282 5.04356 140.973 4.96591 140.621 4.96591C140.253 4.96591 139.928 5.05114 139.643 5.22159C139.363 5.38826 139.143 5.61364 138.984 5.89773C138.825 6.17803 138.744 6.49053 138.74 6.83523V8.26136C138.74 8.69318 138.82 9.06629 138.979 9.38068C139.142 9.69508 139.371 9.9375 139.666 10.108C139.962 10.2784 140.312 10.3636 140.717 10.3636C140.986 10.3636 141.232 10.3258 141.456 10.25C141.679 10.1742 141.871 10.0606 142.03 9.90909C142.189 9.75758 142.31 9.57197 142.393 9.35227L144.632 9.5C144.518 10.0379 144.286 10.5076 143.933 10.9091C143.585 11.3068 143.134 11.6174 142.581 11.8409C142.032 12.0606 141.397 12.1705 140.678 12.1705ZM153.524 5.76136L151.308 5.89773C151.27 5.70833 151.189 5.53788 151.064 5.38636C150.939 5.23106 150.774 5.10795 150.57 5.01705C150.369 4.92235 150.128 4.875 149.848 4.875C149.473 4.875 149.157 4.95455 148.899 5.11364C148.642 5.26894 148.513 5.47727 148.513 5.73864C148.513 5.94697 148.596 6.12311 148.763 6.26705C148.929 6.41098 149.215 6.52652 149.621 6.61364L151.2 6.93182C152.049 7.10606 152.681 7.38636 153.098 7.77273C153.515 8.15909 153.723 8.66667 153.723 9.29545C153.723 9.86742 153.554 10.3693 153.217 10.8011C152.884 11.233 152.426 11.5701 151.842 11.8125C151.263 12.0511 150.594 12.1705 149.837 12.1705C148.681 12.1705 147.761 11.9299 147.075 11.4489C146.393 10.964 145.994 10.3049 145.876 9.47159L148.257 9.34659C148.329 9.69886 148.503 9.9678 148.78 10.1534C149.056 10.3352 149.411 10.4261 149.842 10.4261C150.267 10.4261 150.607 10.3447 150.865 10.1818C151.126 10.0152 151.259 9.80114 151.263 9.53977C151.259 9.32008 151.166 9.14015 150.984 9C150.803 8.85606 150.522 8.74621 150.143 8.67045L148.632 8.36932C147.78 8.19886 147.145 7.90341 146.729 7.48295C146.316 7.0625 146.109 6.52652 146.109 5.875C146.109 5.31439 146.261 4.83144 146.564 4.42614C146.871 4.02083 147.301 3.70833 147.854 3.48864C148.411 3.26894 149.062 3.15909 149.808 3.15909C150.911 3.15909 151.778 3.39205 152.411 3.85795C153.047 4.32386 153.418 4.95833 153.524 5.76136ZM159.19 12.1705C158.308 12.1705 157.545 11.983 156.901 11.608C156.26 11.2292 155.766 10.7027 155.418 10.0284C155.069 9.35038 154.895 8.56439 154.895 7.67045C154.895 6.76894 155.069 5.98106 155.418 5.30682C155.766 4.62879 156.26 4.10227 156.901 3.72727C157.545 3.34848 158.308 3.15909 159.19 3.15909C160.073 3.15909 160.834 3.34848 161.474 3.72727C162.118 4.10227 162.615 4.62879 162.963 5.30682C163.312 5.98106 163.486 6.76894 163.486 7.67045C163.486 8.56439 163.312 9.35038 162.963 10.0284C162.615 10.7027 162.118 11.2292 161.474 11.608C160.834 11.983 160.073 12.1705 159.19 12.1705ZM159.202 10.2955C159.603 10.2955 159.938 10.1818 160.207 9.95455C160.476 9.72348 160.679 9.40909 160.815 9.01136C160.955 8.61364 161.026 8.16098 161.026 7.65341C161.026 7.14583 160.955 6.69318 160.815 6.29545C160.679 5.89773 160.476 5.58333 160.207 5.35227C159.938 5.12121 159.603 5.00568 159.202 5.00568C158.796 5.00568 158.455 5.12121 158.179 5.35227C157.906 5.58333 157.7 5.89773 157.56 6.29545C157.423 6.69318 157.355 7.14583 157.355 7.65341C157.355 8.16098 157.423 8.61364 157.56 9.01136C157.7 9.40909 157.906 9.72348 158.179 9.95455C158.455 10.1818 158.796 10.2955 159.202 10.2955ZM165.06 12V3.27273H167.366V4.8125H167.469C167.651 4.30114 167.954 3.89773 168.378 3.60227C168.802 3.30682 169.31 3.15909 169.901 3.15909C170.499 3.15909 171.009 3.30871 171.429 3.60795C171.849 3.90341 172.13 4.30492 172.27 4.8125H172.361C172.539 4.3125 172.861 3.91288 173.327 3.61364C173.796 3.31061 174.351 3.15909 174.991 3.15909C175.806 3.15909 176.467 3.41856 176.974 3.9375C177.486 4.45265 177.741 5.18371 177.741 6.13068V12H175.327V6.60795C175.327 6.12311 175.198 5.75947 174.94 5.51705C174.683 5.27462 174.361 5.15341 173.974 5.15341C173.535 5.15341 173.192 5.29356 172.946 5.57386C172.7 5.85038 172.577 6.21591 172.577 6.67045V12H170.23V6.55682C170.23 6.12879 170.107 5.78788 169.861 5.53409C169.618 5.2803 169.298 5.15341 168.901 5.15341C168.632 5.15341 168.389 5.22159 168.173 5.35795C167.961 5.49053 167.793 5.67803 167.668 5.92045C167.543 6.15909 167.48 6.43939 167.48 6.76136V12H165.06ZM183.631 12.1705C182.733 12.1705 181.96 11.9886 181.312 11.625C180.669 11.2576 180.172 10.7386 179.824 10.0682C179.475 9.39394 179.301 8.59659 179.301 7.67614C179.301 6.77841 179.475 5.99053 179.824 5.3125C180.172 4.63447 180.663 4.10606 181.295 3.72727C181.932 3.34848 182.678 3.15909 183.534 3.15909C184.11 3.15909 184.646 3.25189 185.142 3.4375C185.642 3.61932 186.078 3.89394 186.449 4.26136C186.824 4.62879 187.116 5.09091 187.324 5.64773C187.532 6.20076 187.636 6.84848 187.636 7.59091V8.25568H180.267V6.75568H185.358C185.358 6.4072 185.282 6.09848 185.131 5.82955C184.979 5.56061 184.769 5.35038 184.5 5.19886C184.235 5.04356 183.926 4.96591 183.574 4.96591C183.206 4.96591 182.881 5.05114 182.597 5.22159C182.316 5.38826 182.097 5.61364 181.938 5.89773C181.778 6.17803 181.697 6.49053 181.693 6.83523V8.26136C181.693 8.69318 181.773 9.06629 181.932 9.38068C182.095 9.69508 182.324 9.9375 182.619 10.108C182.915 10.2784 183.265 10.3636 183.67 10.3636C183.939 10.3636 184.186 10.3258 184.409 10.25C184.633 10.1742 184.824 10.0606 184.983 9.90909C185.142 9.75758 185.263 9.57197 185.347 9.35227L187.585 9.5C187.472 10.0379 187.239 10.5076 186.886 10.9091C186.538 11.3068 186.087 11.6174 185.534 11.8409C184.985 12.0606 184.35 12.1705 183.631 12.1705Z" fill="black"/>
</svg>
